%TF.GenerationSoftware,KiCad,Pcbnew,9.0.6*%
%TF.CreationDate,2025-10-31T15:30:13+00:00*%
%TF.ProjectId,SCART_Invader,53434152-545f-4496-9e76-616465722e6b,rev?*%
%TF.SameCoordinates,Original*%
%TF.FileFunction,Soldermask,Bot*%
%TF.FilePolarity,Negative*%
%FSLAX46Y46*%
G04 Gerber Fmt 4.6, Leading zero omitted, Abs format (unit mm)*
G04 Created by KiCad (PCBNEW 9.0.6) date 2025-10-31 15:30:13*
%MOMM*%
%LPD*%
G01*
G04 APERTURE LIST*
G04 Aperture macros list*
%AMRoundRect*
0 Rectangle with rounded corners*
0 $1 Rounding radius*
0 $2 $3 $4 $5 $6 $7 $8 $9 X,Y pos of 4 corners*
0 Add a 4 corners polygon primitive as box body*
4,1,4,$2,$3,$4,$5,$6,$7,$8,$9,$2,$3,0*
0 Add four circle primitives for the rounded corners*
1,1,$1+$1,$2,$3*
1,1,$1+$1,$4,$5*
1,1,$1+$1,$6,$7*
1,1,$1+$1,$8,$9*
0 Add four rect primitives between the rounded corners*
20,1,$1+$1,$2,$3,$4,$5,0*
20,1,$1+$1,$4,$5,$6,$7,0*
20,1,$1+$1,$6,$7,$8,$9,0*
20,1,$1+$1,$8,$9,$2,$3,0*%
G04 Aperture macros list end*
%ADD10C,1.300000*%
%ADD11RoundRect,0.250000X-0.550000X-0.550000X0.550000X-0.550000X0.550000X0.550000X-0.550000X0.550000X0*%
%ADD12C,1.600000*%
%ADD13C,3.200000*%
%ADD14R,1.800000X1.800000*%
%ADD15C,1.800000*%
%ADD16O,4.000000X2.000000*%
%ADD17RoundRect,0.250000X0.550000X-0.550000X0.550000X0.550000X-0.550000X0.550000X-0.550000X-0.550000X0*%
%ADD18R,3.500000X3.500000*%
%ADD19RoundRect,0.750000X-1.000000X0.750000X-1.000000X-0.750000X1.000000X-0.750000X1.000000X0.750000X0*%
%ADD20RoundRect,0.875000X-0.875000X0.875000X-0.875000X-0.875000X0.875000X-0.875000X0.875000X0.875000X0*%
%ADD21RoundRect,0.250000X-0.550000X0.550000X-0.550000X-0.550000X0.550000X-0.550000X0.550000X0.550000X0*%
%ADD22R,1.700000X1.700000*%
%ADD23C,1.700000*%
%ADD24RoundRect,0.250200X-0.649800X-0.649800X0.649800X-0.649800X0.649800X0.649800X-0.649800X0.649800X0*%
%ADD25O,2.000000X4.000000*%
%ADD26C,2.200000*%
%ADD27C,1.500000*%
%ADD28C,3.500000*%
%ADD29R,2.000000X1.905000*%
%ADD30O,2.000000X1.905000*%
G04 APERTURE END LIST*
D10*
%TO.C,K11*%
X126629000Y-100467227D03*
X126629000Y-103667227D03*
X126629000Y-105867227D03*
X126629000Y-108067227D03*
X131709000Y-108067227D03*
X131709000Y-105867227D03*
X131709000Y-103667227D03*
X131709000Y-100467227D03*
%TD*%
%TO.C,K22*%
X198882000Y-100467227D03*
X198882000Y-103667227D03*
X198882000Y-105867227D03*
X198882000Y-108067227D03*
X203962000Y-108067227D03*
X203962000Y-105867227D03*
X203962000Y-103667227D03*
X203962000Y-100467227D03*
%TD*%
D11*
%TO.C,D30*%
X103710000Y-97750000D03*
D12*
X106250000Y-97750000D03*
%TD*%
%TO.C,C7*%
X197764400Y-65748051D03*
X197764400Y-63248051D03*
%TD*%
D13*
%TO.C,H2*%
X40097000Y-141450000D03*
%TD*%
D14*
%TO.C,D8*%
X177364571Y-134112000D03*
D15*
X177364571Y-131572000D03*
%TD*%
D16*
%TO.C,J5*%
X71311426Y-84186134D03*
X66231426Y-86101134D03*
X71311426Y-87996134D03*
X66231426Y-89911134D03*
X71311426Y-91806134D03*
X66231426Y-93721134D03*
X71311426Y-95616134D03*
X66231426Y-97531134D03*
X71311426Y-99426134D03*
X66231426Y-101341134D03*
X71311426Y-103236134D03*
X66231426Y-105151134D03*
X71311426Y-107046134D03*
X66231426Y-108961134D03*
X71311426Y-110856134D03*
X66231426Y-112771134D03*
X71311426Y-114666134D03*
X66231426Y-116581134D03*
X71311426Y-118476134D03*
X66231426Y-120391134D03*
X71311426Y-122286134D03*
%TD*%
D17*
%TO.C,C10*%
X176594887Y-50684313D03*
D12*
X176594887Y-48184313D03*
%TD*%
D17*
%TO.C,U8*%
X59792000Y-67370000D03*
D12*
X62332000Y-67370000D03*
X64872000Y-67370000D03*
X67412000Y-67370000D03*
X67412000Y-59750000D03*
X64872000Y-59750000D03*
X62332000Y-59750000D03*
X59792000Y-59750000D03*
%TD*%
%TO.C,C6*%
X212305458Y-65748051D03*
X212305458Y-63248051D03*
%TD*%
D16*
%TO.C,J12*%
X240130426Y-84186134D03*
X235050426Y-86101134D03*
X240130426Y-87996134D03*
X235050426Y-89911134D03*
X240130426Y-91806134D03*
X235050426Y-93721134D03*
X240130426Y-95616134D03*
X235050426Y-97531134D03*
X240130426Y-99426134D03*
X235050426Y-101341134D03*
X240130426Y-103236134D03*
X235050426Y-105151134D03*
X240130426Y-107046134D03*
X235050426Y-108961134D03*
X240130426Y-110856134D03*
X235050426Y-112771134D03*
X240130426Y-114666134D03*
X235050426Y-116581134D03*
X240130426Y-118476134D03*
X235050426Y-120391134D03*
X240130426Y-122286134D03*
%TD*%
D10*
%TO.C,K2*%
X54213600Y-100467227D03*
X54213600Y-103667227D03*
X54213600Y-105867227D03*
X54213600Y-108067227D03*
X59293600Y-108067227D03*
X59293600Y-105867227D03*
X59293600Y-103667227D03*
X59293600Y-100467227D03*
%TD*%
D11*
%TO.C,D15*%
X103833333Y-84201000D03*
D12*
X106373333Y-84201000D03*
%TD*%
%TO.C,C13*%
X73660000Y-59964000D03*
X73660000Y-62464000D03*
%TD*%
D18*
%TO.C,J2*%
X108204000Y-54750000D03*
D19*
X108204000Y-48750000D03*
D20*
X103504000Y-51750000D03*
%TD*%
D12*
%TO.C,R13*%
X101650800Y-138734800D03*
X109270800Y-138734800D03*
%TD*%
D17*
%TO.C,U5*%
X183878384Y-60232836D03*
D12*
X186418384Y-60232836D03*
X188958384Y-60232836D03*
X191498384Y-60232836D03*
X194038384Y-60232836D03*
X196578384Y-60232836D03*
X199118384Y-60232836D03*
X201658384Y-60232836D03*
X204198384Y-60232836D03*
X206738384Y-60232836D03*
X209278384Y-60232836D03*
X211818384Y-60232836D03*
X214358384Y-60232836D03*
X216898384Y-60232836D03*
X216898384Y-52612836D03*
X214358384Y-52612836D03*
X211818384Y-52612836D03*
X209278384Y-52612836D03*
X206738384Y-52612836D03*
X204198384Y-52612836D03*
X201658384Y-52612836D03*
X199118384Y-52612836D03*
X196578384Y-52612836D03*
X194038384Y-52612836D03*
X191498384Y-52612836D03*
X188958384Y-52612836D03*
X186418384Y-52612836D03*
X183878384Y-52612836D03*
%TD*%
D16*
%TO.C,J11*%
X216013426Y-84186134D03*
X210933426Y-86101134D03*
X216013426Y-87996134D03*
X210933426Y-89911134D03*
X216013426Y-91806134D03*
X210933426Y-93721134D03*
X216013426Y-95616134D03*
X210933426Y-97531134D03*
X216013426Y-99426134D03*
X210933426Y-101341134D03*
X216013426Y-103236134D03*
X210933426Y-105151134D03*
X216013426Y-107046134D03*
X210933426Y-108961134D03*
X216013426Y-110856134D03*
X210933426Y-112771134D03*
X216013426Y-114666134D03*
X210933426Y-116581134D03*
X216013426Y-118476134D03*
X210933426Y-120391134D03*
X216013426Y-122286134D03*
%TD*%
D12*
%TO.C,R14*%
X125679200Y-138734800D03*
X133299200Y-138734800D03*
%TD*%
D11*
%TO.C,D33*%
X55385686Y-97750000D03*
D12*
X57925686Y-97750000D03*
%TD*%
D14*
%TO.C,D7*%
X153270857Y-134112000D03*
D15*
X153270857Y-131572000D03*
%TD*%
D14*
%TO.C,D3*%
X80989714Y-134112000D03*
D15*
X80989714Y-131572000D03*
%TD*%
D10*
%TO.C,K23*%
X199019000Y-87172800D03*
X199019000Y-90372800D03*
X199019000Y-92572800D03*
X199019000Y-94772800D03*
X204099000Y-94772800D03*
X204099000Y-92572800D03*
X204099000Y-90372800D03*
X204099000Y-87172800D03*
%TD*%
D12*
%TO.C,R8*%
X199745600Y-70002400D03*
X207365600Y-70002400D03*
%TD*%
D21*
%TO.C,D19*%
X53340000Y-60198000D03*
D12*
X53340000Y-62738000D03*
%TD*%
D21*
%TO.C,C9*%
X135686800Y-47904400D03*
D12*
X135686800Y-50404400D03*
%TD*%
D11*
%TO.C,D17*%
X200166667Y-84201000D03*
D12*
X202706667Y-84201000D03*
%TD*%
D22*
%TO.C,J1*%
X204418384Y-49232836D03*
D23*
X204418384Y-46692836D03*
X206958384Y-49232836D03*
X206958384Y-46692836D03*
X209498384Y-49232836D03*
X209498384Y-46692836D03*
%TD*%
D14*
%TO.C,D10*%
X225552000Y-134112000D03*
D15*
X225552000Y-131572000D03*
%TD*%
D14*
%TO.C,D2*%
X56896000Y-134112000D03*
D15*
X56896000Y-131572000D03*
%TD*%
D12*
%TO.C,C4*%
X200609200Y-49377600D03*
X198109200Y-49377600D03*
%TD*%
%TO.C,R10*%
X53594000Y-138734800D03*
X61214000Y-138734800D03*
%TD*%
D11*
%TO.C,D1*%
X224135686Y-97750000D03*
D12*
X226675686Y-97750000D03*
%TD*%
D10*
%TO.C,K8*%
X102489000Y-100467227D03*
X102489000Y-103667227D03*
X102489000Y-105867227D03*
X102489000Y-108067227D03*
X107569000Y-108067227D03*
X107569000Y-105867227D03*
X107569000Y-103667227D03*
X107569000Y-100467227D03*
%TD*%
D11*
%TO.C,D20*%
X224210000Y-110750000D03*
D12*
X226750000Y-110750000D03*
%TD*%
%TO.C,R21*%
X70866000Y-59944000D03*
X70866000Y-67564000D03*
%TD*%
D17*
%TO.C,U4*%
X150072615Y-67354090D03*
D12*
X152612615Y-67354090D03*
X155152615Y-67354090D03*
X157692615Y-67354090D03*
X160232615Y-67354090D03*
X162772615Y-67354090D03*
X165312615Y-67354090D03*
X167852615Y-67354090D03*
X167852615Y-59734090D03*
X165312615Y-59734090D03*
X162772615Y-59734090D03*
X160232615Y-59734090D03*
X157692615Y-59734090D03*
X155152615Y-59734090D03*
X152612615Y-59734090D03*
X150072615Y-59734090D03*
%TD*%
D10*
%TO.C,K15*%
X150759000Y-100467227D03*
X150759000Y-103667227D03*
X150759000Y-105867227D03*
X150759000Y-108067227D03*
X155839000Y-108067227D03*
X155839000Y-105867227D03*
X155839000Y-103667227D03*
X155839000Y-100467227D03*
%TD*%
D13*
%TO.C,H4*%
X242097000Y-141450000D03*
%TD*%
D24*
%TO.C,U6*%
X210743800Y-143459200D03*
D15*
X213283800Y-143459200D03*
X215823800Y-143459200D03*
%TD*%
D10*
%TO.C,K13*%
X49724000Y-59954000D03*
X46524000Y-59954000D03*
X44324000Y-59954000D03*
X42124000Y-59954000D03*
X42124000Y-65034000D03*
X44324000Y-65034000D03*
X46524000Y-65034000D03*
X49724000Y-65034000D03*
%TD*%
D16*
%TO.C,J3*%
X83000000Y-49750000D03*
D25*
X83000000Y-54250000D03*
D16*
X69000000Y-49750000D03*
D25*
X69000000Y-54250000D03*
D16*
X55000000Y-49750000D03*
D25*
X55000000Y-54250000D03*
%TD*%
D11*
%TO.C,D14*%
X127916667Y-84201000D03*
D12*
X130456667Y-84201000D03*
%TD*%
%TO.C,R1*%
X87884000Y-59690000D03*
X87884000Y-67310000D03*
%TD*%
D13*
%TO.C,H3*%
X242097000Y-49450000D03*
%TD*%
D11*
%TO.C,D34*%
X55385686Y-110750000D03*
D12*
X57925686Y-110750000D03*
%TD*%
D17*
%TO.C,U2*%
X120010000Y-67250000D03*
D12*
X122550000Y-67250000D03*
X125090000Y-67250000D03*
X127630000Y-67250000D03*
X130170000Y-67250000D03*
X132710000Y-67250000D03*
X135250000Y-67250000D03*
X137790000Y-67250000D03*
X137790000Y-59630000D03*
X135250000Y-59630000D03*
X132710000Y-59630000D03*
X130170000Y-59630000D03*
X127630000Y-59630000D03*
X125090000Y-59630000D03*
X122550000Y-59630000D03*
X120010000Y-59630000D03*
%TD*%
%TO.C,R3*%
X84412667Y-59690000D03*
X84412667Y-67310000D03*
%TD*%
%TO.C,C8*%
X216057800Y-140665200D03*
X213557800Y-140665200D03*
%TD*%
%TO.C,C3*%
X95738000Y-57150000D03*
X93238000Y-57150000D03*
%TD*%
D11*
%TO.C,D31*%
X79710000Y-110750000D03*
D12*
X82250000Y-110750000D03*
%TD*%
D16*
%TO.C,J10*%
X191896426Y-84186134D03*
X186816426Y-86101134D03*
X191896426Y-87996134D03*
X186816426Y-89911134D03*
X191896426Y-91806134D03*
X186816426Y-93721134D03*
X191896426Y-95616134D03*
X186816426Y-97531134D03*
X191896426Y-99426134D03*
X186816426Y-101341134D03*
X191896426Y-103236134D03*
X186816426Y-105151134D03*
X191896426Y-107046134D03*
X186816426Y-108961134D03*
X191896426Y-110856134D03*
X186816426Y-112771134D03*
X191896426Y-114666134D03*
X186816426Y-116581134D03*
X191896426Y-118476134D03*
X186816426Y-120391134D03*
X191896426Y-122286134D03*
%TD*%
D10*
%TO.C,K16*%
X150632000Y-87172800D03*
X150632000Y-90372800D03*
X150632000Y-92572800D03*
X150632000Y-94772800D03*
X155712000Y-94772800D03*
X155712000Y-92572800D03*
X155712000Y-90372800D03*
X155712000Y-87172800D03*
%TD*%
D12*
%TO.C,R17*%
X197764400Y-138734800D03*
X205384400Y-138734800D03*
%TD*%
D10*
%TO.C,K18*%
X174752000Y-100467227D03*
X174752000Y-103667227D03*
X174752000Y-105867227D03*
X174752000Y-108067227D03*
X179832000Y-108067227D03*
X179832000Y-105867227D03*
X179832000Y-103667227D03*
X179832000Y-100467227D03*
%TD*%
%TO.C,K5*%
X78369000Y-100467227D03*
X78369000Y-103667227D03*
X78369000Y-105867227D03*
X78369000Y-108067227D03*
X83449000Y-108067227D03*
X83449000Y-105867227D03*
X83449000Y-103667227D03*
X83449000Y-100467227D03*
%TD*%
D12*
%TO.C,C1*%
X195305458Y-63248051D03*
X195305458Y-65748051D03*
%TD*%
D16*
%TO.C,J8*%
X143662426Y-84186134D03*
X138582426Y-86101134D03*
X143662426Y-87996134D03*
X138582426Y-89911134D03*
X143662426Y-91806134D03*
X138582426Y-93721134D03*
X143662426Y-95616134D03*
X138582426Y-97531134D03*
X143662426Y-99426134D03*
X138582426Y-101341134D03*
X143662426Y-103236134D03*
X138582426Y-105151134D03*
X143662426Y-107046134D03*
X138582426Y-108961134D03*
X143662426Y-110856134D03*
X138582426Y-112771134D03*
X143662426Y-114666134D03*
X138582426Y-116581134D03*
X143662426Y-118476134D03*
X138582426Y-120391134D03*
X143662426Y-122286134D03*
%TD*%
D12*
%TO.C,R4*%
X77470000Y-59690000D03*
X77470000Y-67310000D03*
%TD*%
D14*
%TO.C,D9*%
X201458286Y-134112000D03*
D15*
X201458286Y-131572000D03*
%TD*%
D10*
%TO.C,K20*%
X198882000Y-113500000D03*
X198882000Y-116700000D03*
X198882000Y-118900000D03*
X198882000Y-121100000D03*
X203962000Y-121100000D03*
X203962000Y-118900000D03*
X203962000Y-116700000D03*
X203962000Y-113500000D03*
%TD*%
D14*
%TO.C,D5*%
X105083429Y-134112000D03*
D15*
X105083429Y-131572000D03*
%TD*%
D12*
%TO.C,R7*%
X193548000Y-48260000D03*
X185928000Y-48260000D03*
%TD*%
D10*
%TO.C,K4*%
X78359000Y-113500000D03*
X78359000Y-116700000D03*
X78359000Y-118900000D03*
X78359000Y-121100000D03*
X83439000Y-121100000D03*
X83439000Y-118900000D03*
X83439000Y-116700000D03*
X83439000Y-113500000D03*
%TD*%
D12*
%TO.C,R15*%
X149707600Y-138734800D03*
X157327600Y-138734800D03*
%TD*%
D17*
%TO.C,U1*%
X92202000Y-67354090D03*
D12*
X94742000Y-67354090D03*
X97282000Y-67354090D03*
X99822000Y-67354090D03*
X102362000Y-67354090D03*
X104902000Y-67354090D03*
X107442000Y-67354090D03*
X109982000Y-67354090D03*
X109982000Y-59734090D03*
X107442000Y-59734090D03*
X104902000Y-59734090D03*
X102362000Y-59734090D03*
X99822000Y-59734090D03*
X97282000Y-59734090D03*
X94742000Y-59734090D03*
X92202000Y-59734090D03*
%TD*%
D16*
%TO.C,J4*%
X47194426Y-84186134D03*
X42114426Y-86101134D03*
X47194426Y-87996134D03*
X42114426Y-89911134D03*
X47194426Y-91806134D03*
X42114426Y-93721134D03*
X47194426Y-95616134D03*
X42114426Y-97531134D03*
X47194426Y-99426134D03*
X42114426Y-101341134D03*
X47194426Y-103236134D03*
X42114426Y-105151134D03*
X47194426Y-107046134D03*
X42114426Y-108961134D03*
X47194426Y-110856134D03*
X42114426Y-112771134D03*
X47194426Y-114666134D03*
X42114426Y-116581134D03*
X47194426Y-118476134D03*
X42114426Y-120391134D03*
X47194426Y-122286134D03*
%TD*%
D10*
%TO.C,K14*%
X150749000Y-113500000D03*
X150749000Y-116700000D03*
X150749000Y-118900000D03*
X150749000Y-121100000D03*
X155829000Y-121100000D03*
X155829000Y-118900000D03*
X155829000Y-116700000D03*
X155829000Y-113500000D03*
%TD*%
D11*
%TO.C,D12*%
X176083333Y-84201000D03*
D12*
X178623333Y-84201000D03*
%TD*%
%TO.C,R6*%
X192024000Y-65024000D03*
X184404000Y-65024000D03*
%TD*%
D14*
%TO.C,D6*%
X129177143Y-134112000D03*
D15*
X129177143Y-131572000D03*
%TD*%
D11*
%TO.C,D25*%
X151885686Y-97750000D03*
D12*
X154425686Y-97750000D03*
%TD*%
D22*
%TO.C,J13*%
X168905000Y-46736000D03*
D23*
X171445000Y-46736000D03*
%TD*%
D12*
%TO.C,C11*%
X56896000Y-59710000D03*
X56896000Y-62210000D03*
%TD*%
%TO.C,R16*%
X173736000Y-138734800D03*
X181356000Y-138734800D03*
%TD*%
%TO.C,C2*%
X119329200Y-55499000D03*
X121829200Y-55499000D03*
%TD*%
D16*
%TO.C,J6*%
X95428426Y-84186134D03*
X90348426Y-86101134D03*
X95428426Y-87996134D03*
X90348426Y-89911134D03*
X95428426Y-91806134D03*
X90348426Y-93721134D03*
X95428426Y-95616134D03*
X90348426Y-97531134D03*
X95428426Y-99426134D03*
X90348426Y-101341134D03*
X95428426Y-103236134D03*
X90348426Y-105151134D03*
X95428426Y-107046134D03*
X90348426Y-108961134D03*
X95428426Y-110856134D03*
X90348426Y-112771134D03*
X95428426Y-114666134D03*
X90348426Y-116581134D03*
X95428426Y-118476134D03*
X90348426Y-120391134D03*
X95428426Y-122286134D03*
%TD*%
D26*
%TO.C,SW1*%
X72943600Y-140542200D03*
X65943600Y-140542200D03*
D23*
X71693600Y-143042200D03*
X67193600Y-143042200D03*
%TD*%
D11*
%TO.C,D16*%
X79500000Y-84201000D03*
D12*
X82040000Y-84201000D03*
%TD*%
%TO.C,R12*%
X225298000Y-48920400D03*
X217678000Y-48920400D03*
%TD*%
D11*
%TO.C,D22*%
X200135686Y-110750000D03*
D12*
X202675686Y-110750000D03*
%TD*%
D10*
%TO.C,K17*%
X174752000Y-113500000D03*
X174752000Y-116700000D03*
X174752000Y-118900000D03*
X174752000Y-121100000D03*
X179832000Y-121100000D03*
X179832000Y-118900000D03*
X179832000Y-116700000D03*
X179832000Y-113500000D03*
%TD*%
D12*
%TO.C,R20*%
X42164000Y-67818000D03*
X49784000Y-67818000D03*
%TD*%
%TO.C,R18*%
X221792800Y-138734800D03*
X229412800Y-138734800D03*
%TD*%
D10*
%TO.C,K25*%
X223022000Y-87172800D03*
X223022000Y-90372800D03*
X223022000Y-92572800D03*
X223022000Y-94772800D03*
X228102000Y-94772800D03*
X228102000Y-92572800D03*
X228102000Y-90372800D03*
X228102000Y-87172800D03*
%TD*%
D11*
%TO.C,D29*%
X103635686Y-110750000D03*
D12*
X106175686Y-110750000D03*
%TD*%
D10*
%TO.C,K21*%
X223022000Y-113500000D03*
X223022000Y-116700000D03*
X223022000Y-118900000D03*
X223022000Y-121100000D03*
X228102000Y-121100000D03*
X228102000Y-118900000D03*
X228102000Y-116700000D03*
X228102000Y-113500000D03*
%TD*%
D12*
%TO.C,R2*%
X80941333Y-59690000D03*
X80941333Y-67310000D03*
%TD*%
D16*
%TO.C,J9*%
X167779426Y-84186134D03*
X162699426Y-86101134D03*
X167779426Y-87996134D03*
X162699426Y-89911134D03*
X167779426Y-91806134D03*
X162699426Y-93721134D03*
X167779426Y-95616134D03*
X162699426Y-97531134D03*
X167779426Y-99426134D03*
X162699426Y-101341134D03*
X167779426Y-103236134D03*
X162699426Y-105151134D03*
X167779426Y-107046134D03*
X162699426Y-108961134D03*
X167779426Y-110856134D03*
X162699426Y-112771134D03*
X167779426Y-114666134D03*
X162699426Y-116581134D03*
X167779426Y-118476134D03*
X162699426Y-120391134D03*
X167779426Y-122286134D03*
%TD*%
D12*
%TO.C,C5*%
X152674000Y-57404000D03*
X155174000Y-57404000D03*
%TD*%
D16*
%TO.C,J7*%
X119545426Y-84186134D03*
X114465426Y-86101134D03*
X119545426Y-87996134D03*
X114465426Y-89911134D03*
X119545426Y-91806134D03*
X114465426Y-93721134D03*
X119545426Y-95616134D03*
X114465426Y-97531134D03*
X119545426Y-99426134D03*
X114465426Y-101341134D03*
X119545426Y-103236134D03*
X114465426Y-105151134D03*
X119545426Y-107046134D03*
X114465426Y-108961134D03*
X119545426Y-110856134D03*
X114465426Y-112771134D03*
X119545426Y-114666134D03*
X114465426Y-116581134D03*
X119545426Y-118476134D03*
X114465426Y-120391134D03*
X119545426Y-122286134D03*
%TD*%
D11*
%TO.C,D26*%
X151885686Y-110750000D03*
D12*
X154425686Y-110750000D03*
%TD*%
%TO.C,R19*%
X38608000Y-60198000D03*
X38608000Y-67818000D03*
%TD*%
D10*
%TO.C,K1*%
X54162800Y-113500000D03*
X54162800Y-116700000D03*
X54162800Y-118900000D03*
X54162800Y-121100000D03*
X59242800Y-121100000D03*
X59242800Y-118900000D03*
X59242800Y-116700000D03*
X59242800Y-113500000D03*
%TD*%
%TO.C,K12*%
X126619000Y-87172800D03*
X126619000Y-90372800D03*
X126619000Y-92572800D03*
X126619000Y-94772800D03*
X131699000Y-94772800D03*
X131699000Y-92572800D03*
X131699000Y-90372800D03*
X131699000Y-87172800D03*
%TD*%
D11*
%TO.C,D32*%
X79635686Y-97750000D03*
D12*
X82175686Y-97750000D03*
%TD*%
D10*
%TO.C,K6*%
X78369000Y-87172800D03*
X78369000Y-90372800D03*
X78369000Y-92572800D03*
X78369000Y-94772800D03*
X83449000Y-94772800D03*
X83449000Y-92572800D03*
X83449000Y-90372800D03*
X83449000Y-87172800D03*
%TD*%
D11*
%TO.C,D13*%
X152000000Y-84201000D03*
D12*
X154540000Y-84201000D03*
%TD*%
D27*
%TO.C,Y1*%
X207493842Y-65176400D03*
X202613842Y-65176400D03*
%TD*%
D12*
%TO.C,R11*%
X77622400Y-138734800D03*
X85242400Y-138734800D03*
%TD*%
D28*
%TO.C,U7*%
X161735000Y-50546000D03*
D29*
X145075000Y-48006000D03*
D30*
X145075000Y-50546000D03*
X145075000Y-53086000D03*
%TD*%
D11*
%TO.C,D11*%
X224250000Y-84201000D03*
D12*
X226790000Y-84201000D03*
%TD*%
D10*
%TO.C,K24*%
X223012000Y-100467227D03*
X223012000Y-103667227D03*
X223012000Y-105867227D03*
X223012000Y-108067227D03*
X228092000Y-108067227D03*
X228092000Y-105867227D03*
X228092000Y-103667227D03*
X228092000Y-100467227D03*
%TD*%
D11*
%TO.C,D27*%
X127635686Y-97750000D03*
D12*
X130175686Y-97750000D03*
%TD*%
D10*
%TO.C,K3*%
X54203600Y-87172800D03*
X54203600Y-90372800D03*
X54203600Y-92572800D03*
X54203600Y-94772800D03*
X59283600Y-94772800D03*
X59283600Y-92572800D03*
X59283600Y-90372800D03*
X59283600Y-87172800D03*
%TD*%
D17*
%TO.C,U3*%
X224130314Y-64742001D03*
D12*
X226670314Y-64742001D03*
X229210314Y-64742001D03*
X231750314Y-64742001D03*
X234290314Y-64742001D03*
X236830314Y-64742001D03*
X239370314Y-64742001D03*
X241910314Y-64742001D03*
X241910314Y-57122001D03*
X239370314Y-57122001D03*
X236830314Y-57122001D03*
X234290314Y-57122001D03*
X231750314Y-57122001D03*
X229210314Y-57122001D03*
X226670314Y-57122001D03*
X224130314Y-57122001D03*
%TD*%
D10*
%TO.C,K9*%
X102489000Y-87172800D03*
X102489000Y-90372800D03*
X102489000Y-92572800D03*
X102489000Y-94772800D03*
X107569000Y-94772800D03*
X107569000Y-92572800D03*
X107569000Y-90372800D03*
X107569000Y-87172800D03*
%TD*%
D12*
%TO.C,C12*%
X64871600Y-70053200D03*
X62371600Y-70053200D03*
%TD*%
D11*
%TO.C,D23*%
X176135686Y-110750000D03*
D12*
X178675686Y-110750000D03*
%TD*%
D11*
%TO.C,D28*%
X127710000Y-110772742D03*
D12*
X130250000Y-110772742D03*
%TD*%
D11*
%TO.C,D18*%
X55565191Y-84305258D03*
D12*
X58105191Y-84305258D03*
%TD*%
D10*
%TO.C,K10*%
X126619000Y-113500000D03*
X126619000Y-116700000D03*
X126619000Y-118900000D03*
X126619000Y-121100000D03*
X131699000Y-121100000D03*
X131699000Y-118900000D03*
X131699000Y-116700000D03*
X131699000Y-113500000D03*
%TD*%
D13*
%TO.C,H1*%
X40097000Y-49450000D03*
%TD*%
D11*
%TO.C,D21*%
X200135686Y-97750000D03*
D12*
X202675686Y-97750000D03*
%TD*%
D10*
%TO.C,K19*%
X174752000Y-87172800D03*
X174752000Y-90372800D03*
X174752000Y-92572800D03*
X174752000Y-94772800D03*
X179832000Y-94772800D03*
X179832000Y-92572800D03*
X179832000Y-90372800D03*
X179832000Y-87172800D03*
%TD*%
D14*
%TO.C,D4*%
X229412800Y-50495200D03*
D15*
X231952800Y-50495200D03*
%TD*%
D11*
%TO.C,D24*%
X176100000Y-97700000D03*
D12*
X178640000Y-97700000D03*
%TD*%
D10*
%TO.C,K7*%
X102372000Y-113500000D03*
X102372000Y-116700000D03*
X102372000Y-118900000D03*
X102372000Y-121100000D03*
X107452000Y-121100000D03*
X107452000Y-118900000D03*
X107452000Y-116700000D03*
X107452000Y-113500000D03*
%TD*%
M02*
