M48
; DRILL file {KiCad 9.0.6} date 2025-10-31T15:30:17+0000
; FORMAT={-:-/ absolute / metric / decimal}
; #@! TF.CreationDate,2025-10-31T15:30:17+00:00
; #@! TF.GenerationSoftware,Kicad,Pcbnew,9.0.6
; #@! TF.FileFunction,Plated,1,2,PTH
FMAT,2
METRIC
; #@! TA.AperFunction,Plated,PTH,ViaDrill
T1C0.300
; #@! TA.AperFunction,Plated,PTH,ComponentDrill
T2C0.800
; #@! TA.AperFunction,Plated,PTH,ComponentDrill
T3C0.900
; #@! TA.AperFunction,Plated,PTH,ComponentDrill
T4C1.000
; #@! TA.AperFunction,Plated,PTH,ComponentDrill
T5C1.100
; #@! TA.AperFunction,Plated,PTH,ComponentDrill
T6C1.200
; #@! TA.AperFunction,Plated,PTH,ComponentDrill
T7C1.300
%
G90
G05
T1
X36.576Y-79.248
X41.148Y-81.661
X52.832Y-108.618
X62.865Y-71.628
X67.716Y-69.444
X75.286Y-72.441
X78.943Y-72.644
X127.7Y-56.6
X143.358Y-67.92
X143.815Y-70.51
X145.339Y-65.583
X155.245Y-69.291
X165.303Y-82.194
X168.961Y-69.291
X171.602Y-80.518
X177.292Y-65.126
X193.802Y-50.749
X194.97Y-79.248
X196.494Y-80.645
X211.887Y-71.12
X213.665Y-70.917
X219.202Y-76.251
X220.015Y-78.842
X221.742Y-58.928
X225.704Y-59.639
X244.754Y-55.22
T2
X38.608Y-60.198
X38.608Y-67.818
X42.124Y-59.954
X42.124Y-65.034
X42.164Y-67.818
X44.324Y-59.954
X44.324Y-65.034
X46.524Y-59.954
X46.524Y-65.034
X49.724Y-59.954
X49.724Y-65.034
X49.784Y-67.818
X53.34Y-60.198
X53.34Y-62.738
X53.594Y-138.735
X54.163Y-113.5
X54.163Y-116.7
X54.163Y-118.9
X54.163Y-121.1
X54.204Y-87.173
X54.204Y-90.373
X54.204Y-92.573
X54.204Y-94.773
X54.214Y-100.467
X54.214Y-103.667
X54.214Y-105.867
X54.214Y-108.067
X55.386Y-97.75
X55.386Y-110.75
X55.565Y-84.305
X56.896Y-59.71
X56.896Y-62.21
X57.926Y-97.75
X57.926Y-110.75
X58.105Y-84.305
X59.243Y-113.5
X59.243Y-116.7
X59.243Y-118.9
X59.243Y-121.1
X59.284Y-87.173
X59.284Y-90.373
X59.284Y-92.573
X59.284Y-94.773
X59.294Y-100.467
X59.294Y-103.667
X59.294Y-105.867
X59.294Y-108.067
X59.792Y-59.75
X59.792Y-67.37
X61.214Y-138.735
X62.332Y-59.75
X62.332Y-67.37
X62.372Y-70.053
X64.872Y-70.053
X64.872Y-59.75
X64.872Y-67.37
X67.412Y-59.75
X67.412Y-67.37
X70.866Y-59.944
X70.866Y-67.564
X73.66Y-59.964
X73.66Y-62.464
X77.47Y-59.69
X77.47Y-67.31
X77.622Y-138.735
X78.359Y-113.5
X78.359Y-116.7
X78.359Y-118.9
X78.359Y-121.1
X78.369Y-87.173
X78.369Y-90.373
X78.369Y-92.573
X78.369Y-94.773
X78.369Y-100.467
X78.369Y-103.667
X78.369Y-105.867
X78.369Y-108.067
X79.5Y-84.201
X79.636Y-97.75
X79.71Y-110.75
X80.941Y-59.69
X80.941Y-67.31
X82.04Y-84.201
X82.176Y-97.75
X82.25Y-110.75
X83.439Y-113.5
X83.439Y-116.7
X83.439Y-118.9
X83.439Y-121.1
X83.449Y-87.173
X83.449Y-90.373
X83.449Y-92.573
X83.449Y-94.773
X83.449Y-100.467
X83.449Y-103.667
X83.449Y-105.867
X83.449Y-108.067
X84.413Y-59.69
X84.413Y-67.31
X85.242Y-138.735
X87.884Y-59.69
X87.884Y-67.31
X92.202Y-59.734
X92.202Y-67.354
X93.238Y-57.15
X94.742Y-59.734
X94.742Y-67.354
X95.738Y-57.15
X97.282Y-59.734
X97.282Y-67.354
X99.822Y-59.734
X99.822Y-67.354
X101.651Y-138.735
X102.362Y-59.734
X102.362Y-67.354
X102.372Y-113.5
X102.372Y-116.7
X102.372Y-118.9
X102.372Y-121.1
X102.489Y-87.173
X102.489Y-90.373
X102.489Y-92.573
X102.489Y-94.773
X102.489Y-100.467
X102.489Y-103.667
X102.489Y-105.867
X102.489Y-108.067
X103.636Y-110.75
X103.71Y-97.75
X103.833Y-84.201
X104.902Y-59.734
X104.902Y-67.354
X106.176Y-110.75
X106.25Y-97.75
X106.373Y-84.201
X107.442Y-59.734
X107.442Y-67.354
X107.452Y-113.5
X107.452Y-116.7
X107.452Y-118.9
X107.452Y-121.1
X107.569Y-87.173
X107.569Y-90.373
X107.569Y-92.573
X107.569Y-94.773
X107.569Y-100.467
X107.569Y-103.667
X107.569Y-105.867
X107.569Y-108.067
X109.271Y-138.735
X109.982Y-59.734
X109.982Y-67.354
X119.329Y-55.499
X120.01Y-59.63
X120.01Y-67.25
X121.829Y-55.499
X122.55Y-59.63
X122.55Y-67.25
X125.09Y-59.63
X125.09Y-67.25
X125.679Y-138.735
X126.619Y-87.173
X126.619Y-90.373
X126.619Y-92.573
X126.619Y-94.773
X126.619Y-113.5
X126.619Y-116.7
X126.619Y-118.9
X126.619Y-121.1
X126.629Y-100.467
X126.629Y-103.667
X126.629Y-105.867
X126.629Y-108.067
X127.63Y-59.63
X127.63Y-67.25
X127.636Y-97.75
X127.71Y-110.773
X127.917Y-84.201
X130.17Y-59.63
X130.17Y-67.25
X130.176Y-97.75
X130.25Y-110.773
X130.457Y-84.201
X131.699Y-87.173
X131.699Y-90.373
X131.699Y-92.573
X131.699Y-94.773
X131.699Y-113.5
X131.699Y-116.7
X131.699Y-118.9
X131.699Y-121.1
X131.709Y-100.467
X131.709Y-103.667
X131.709Y-105.867
X131.709Y-108.067
X132.71Y-59.63
X132.71Y-67.25
X133.299Y-138.735
X135.25Y-59.63
X135.25Y-67.25
X135.687Y-47.904
X135.687Y-50.404
X137.79Y-59.63
X137.79Y-67.25
X149.708Y-138.735
X150.073Y-59.734
X150.073Y-67.354
X150.632Y-87.173
X150.632Y-90.373
X150.632Y-92.573
X150.632Y-94.773
X150.749Y-113.5
X150.749Y-116.7
X150.749Y-118.9
X150.749Y-121.1
X150.759Y-100.467
X150.759Y-103.667
X150.759Y-105.867
X150.759Y-108.067
X151.886Y-97.75
X151.886Y-110.75
X152.0Y-84.201
X152.613Y-59.734
X152.613Y-67.354
X152.674Y-57.404
X154.426Y-97.75
X154.426Y-110.75
X154.54Y-84.201
X155.153Y-59.734
X155.153Y-67.354
X155.174Y-57.404
X155.712Y-87.173
X155.712Y-90.373
X155.712Y-92.573
X155.712Y-94.773
X155.829Y-113.5
X155.829Y-116.7
X155.829Y-118.9
X155.829Y-121.1
X155.839Y-100.467
X155.839Y-103.667
X155.839Y-105.867
X155.839Y-108.067
X157.328Y-138.735
X157.693Y-59.734
X157.693Y-67.354
X160.233Y-59.734
X160.233Y-67.354
X162.773Y-59.734
X162.773Y-67.354
X165.313Y-59.734
X165.313Y-67.354
X167.853Y-59.734
X167.853Y-67.354
X173.736Y-138.735
X174.752Y-87.173
X174.752Y-90.373
X174.752Y-92.573
X174.752Y-94.773
X174.752Y-100.467
X174.752Y-103.667
X174.752Y-105.867
X174.752Y-108.067
X174.752Y-113.5
X174.752Y-116.7
X174.752Y-118.9
X174.752Y-121.1
X176.083Y-84.201
X176.1Y-97.7
X176.136Y-110.75
X176.595Y-48.184
X176.595Y-50.684
X178.623Y-84.201
X178.64Y-97.7
X178.676Y-110.75
X179.832Y-87.173
X179.832Y-90.373
X179.832Y-92.573
X179.832Y-94.773
X179.832Y-100.467
X179.832Y-103.667
X179.832Y-105.867
X179.832Y-108.067
X179.832Y-113.5
X179.832Y-116.7
X179.832Y-118.9
X179.832Y-121.1
X181.356Y-138.735
X183.878Y-52.613
X183.878Y-60.233
X184.404Y-65.024
X185.928Y-48.26
X186.418Y-52.613
X186.418Y-60.233
X188.958Y-52.613
X188.958Y-60.233
X191.498Y-52.613
X191.498Y-60.233
X192.024Y-65.024
X193.548Y-48.26
X194.038Y-52.613
X194.038Y-60.233
X195.305Y-63.248
X195.305Y-65.748
X196.578Y-52.613
X196.578Y-60.233
X197.764Y-63.248
X197.764Y-65.748
X197.764Y-138.735
X198.109Y-49.378
X198.882Y-100.467
X198.882Y-103.667
X198.882Y-105.867
X198.882Y-108.067
X198.882Y-113.5
X198.882Y-116.7
X198.882Y-118.9
X198.882Y-121.1
X199.019Y-87.173
X199.019Y-90.373
X199.019Y-92.573
X199.019Y-94.773
X199.118Y-52.613
X199.118Y-60.233
X199.746Y-70.002
X200.136Y-97.75
X200.136Y-110.75
X200.167Y-84.201
X200.609Y-49.378
X201.658Y-52.613
X201.658Y-60.233
X202.614Y-65.176
X202.676Y-97.75
X202.676Y-110.75
X202.707Y-84.201
X203.962Y-100.467
X203.962Y-103.667
X203.962Y-105.867
X203.962Y-108.067
X203.962Y-113.5
X203.962Y-116.7
X203.962Y-118.9
X203.962Y-121.1
X204.099Y-87.173
X204.099Y-90.373
X204.099Y-92.573
X204.099Y-94.773
X204.198Y-52.613
X204.198Y-60.233
X205.384Y-138.735
X206.738Y-52.613
X206.738Y-60.233
X207.366Y-70.002
X207.494Y-65.176
X209.278Y-52.613
X209.278Y-60.233
X211.818Y-52.613
X211.818Y-60.233
X212.305Y-63.248
X212.305Y-65.748
X213.558Y-140.665
X214.358Y-52.613
X214.358Y-60.233
X216.058Y-140.665
X216.898Y-52.613
X216.898Y-60.233
X217.678Y-48.92
X221.793Y-138.735
X223.012Y-100.467
X223.012Y-103.667
X223.012Y-105.867
X223.012Y-108.067
X223.022Y-87.173
X223.022Y-90.373
X223.022Y-92.573
X223.022Y-94.773
X223.022Y-113.5
X223.022Y-116.7
X223.022Y-118.9
X223.022Y-121.1
X224.13Y-57.122
X224.13Y-64.742
X224.136Y-97.75
X224.21Y-110.75
X224.25Y-84.201
X225.298Y-48.92
X226.67Y-57.122
X226.67Y-64.742
X226.676Y-97.75
X226.75Y-110.75
X226.79Y-84.201
X228.092Y-100.467
X228.092Y-103.667
X228.092Y-105.867
X228.092Y-108.067
X228.102Y-87.173
X228.102Y-90.373
X228.102Y-92.573
X228.102Y-94.773
X228.102Y-113.5
X228.102Y-116.7
X228.102Y-118.9
X228.102Y-121.1
X229.21Y-57.122
X229.21Y-64.742
X229.413Y-138.735
X231.75Y-57.122
X231.75Y-64.742
X234.29Y-57.122
X234.29Y-64.742
X236.83Y-57.122
X236.83Y-64.742
X239.37Y-57.122
X239.37Y-64.742
X241.91Y-57.122
X241.91Y-64.742
T3
X56.896Y-131.572
X56.896Y-134.112
X80.99Y-131.572
X80.99Y-134.112
X105.083Y-131.572
X105.083Y-134.112
X129.177Y-131.572
X129.177Y-134.112
X153.271Y-131.572
X153.271Y-134.112
X177.365Y-131.572
X177.365Y-134.112
X201.458Y-131.572
X201.458Y-134.112
X210.744Y-143.459
X213.284Y-143.459
X215.824Y-143.459
X225.552Y-131.572
X225.552Y-134.112
X229.413Y-50.495
X231.953Y-50.495
T4
X67.194Y-143.042
X71.694Y-143.042
X168.905Y-46.736
X171.445Y-46.736
X204.418Y-46.693
X204.418Y-49.233
X206.958Y-46.693
X206.958Y-49.233
X209.498Y-46.693
X209.498Y-49.233
T5
X145.075Y-48.006
X145.075Y-50.546
X145.075Y-53.086
T7
X42.114Y-86.101
X42.114Y-89.911
X42.114Y-93.721
X42.114Y-97.531
X42.114Y-101.341
X42.114Y-105.151
X42.114Y-108.961
X42.114Y-112.771
X42.114Y-116.581
X42.114Y-120.391
X47.194Y-84.186
X47.194Y-87.996
X47.194Y-91.806
X47.194Y-95.616
X47.194Y-99.426
X47.194Y-103.236
X47.194Y-107.046
X47.194Y-110.856
X47.194Y-114.666
X47.194Y-118.476
X47.194Y-122.286
X65.944Y-140.542
X66.231Y-86.101
X66.231Y-89.911
X66.231Y-93.721
X66.231Y-97.531
X66.231Y-101.341
X66.231Y-105.151
X66.231Y-108.961
X66.231Y-112.771
X66.231Y-116.581
X66.231Y-120.391
X71.311Y-84.186
X71.311Y-87.996
X71.311Y-91.806
X71.311Y-95.616
X71.311Y-99.426
X71.311Y-103.236
X71.311Y-107.046
X71.311Y-110.856
X71.311Y-114.666
X71.311Y-118.476
X71.311Y-122.286
X72.944Y-140.542
X90.348Y-86.101
X90.348Y-89.911
X90.348Y-93.721
X90.348Y-97.531
X90.348Y-101.341
X90.348Y-105.151
X90.348Y-108.961
X90.348Y-112.771
X90.348Y-116.581
X90.348Y-120.391
X95.428Y-84.186
X95.428Y-87.996
X95.428Y-91.806
X95.428Y-95.616
X95.428Y-99.426
X95.428Y-103.236
X95.428Y-107.046
X95.428Y-110.856
X95.428Y-114.666
X95.428Y-118.476
X95.428Y-122.286
X114.465Y-86.101
X114.465Y-89.911
X114.465Y-93.721
X114.465Y-97.531
X114.465Y-101.341
X114.465Y-105.151
X114.465Y-108.961
X114.465Y-112.771
X114.465Y-116.581
X114.465Y-120.391
X119.545Y-84.186
X119.545Y-87.996
X119.545Y-91.806
X119.545Y-95.616
X119.545Y-99.426
X119.545Y-103.236
X119.545Y-107.046
X119.545Y-110.856
X119.545Y-114.666
X119.545Y-118.476
X119.545Y-122.286
X138.582Y-86.101
X138.582Y-89.911
X138.582Y-93.721
X138.582Y-97.531
X138.582Y-101.341
X138.582Y-105.151
X138.582Y-108.961
X138.582Y-112.771
X138.582Y-116.581
X138.582Y-120.391
X143.662Y-84.186
X143.662Y-87.996
X143.662Y-91.806
X143.662Y-95.616
X143.662Y-99.426
X143.662Y-103.236
X143.662Y-107.046
X143.662Y-110.856
X143.662Y-114.666
X143.662Y-118.476
X143.662Y-122.286
X162.699Y-86.101
X162.699Y-89.911
X162.699Y-93.721
X162.699Y-97.531
X162.699Y-101.341
X162.699Y-105.151
X162.699Y-108.961
X162.699Y-112.771
X162.699Y-116.581
X162.699Y-120.391
X167.779Y-84.186
X167.779Y-87.996
X167.779Y-91.806
X167.779Y-95.616
X167.779Y-99.426
X167.779Y-103.236
X167.779Y-107.046
X167.779Y-110.856
X167.779Y-114.666
X167.779Y-118.476
X167.779Y-122.286
X186.816Y-86.101
X186.816Y-89.911
X186.816Y-93.721
X186.816Y-97.531
X186.816Y-101.341
X186.816Y-105.151
X186.816Y-108.961
X186.816Y-112.771
X186.816Y-116.581
X186.816Y-120.391
X191.896Y-84.186
X191.896Y-87.996
X191.896Y-91.806
X191.896Y-95.616
X191.896Y-99.426
X191.896Y-103.236
X191.896Y-107.046
X191.896Y-110.856
X191.896Y-114.666
X191.896Y-118.476
X191.896Y-122.286
X210.933Y-86.101
X210.933Y-89.911
X210.933Y-93.721
X210.933Y-97.531
X210.933Y-101.341
X210.933Y-105.151
X210.933Y-108.961
X210.933Y-112.771
X210.933Y-116.581
X210.933Y-120.391
X216.013Y-84.186
X216.013Y-87.996
X216.013Y-91.806
X216.013Y-95.616
X216.013Y-99.426
X216.013Y-103.236
X216.013Y-107.046
X216.013Y-110.856
X216.013Y-114.666
X216.013Y-118.476
X216.013Y-122.286
X235.05Y-86.101
X235.05Y-89.911
X235.05Y-93.721
X235.05Y-97.531
X235.05Y-101.341
X235.05Y-105.151
X235.05Y-108.961
X235.05Y-112.771
X235.05Y-116.581
X235.05Y-120.391
X240.13Y-84.186
X240.13Y-87.996
X240.13Y-91.806
X240.13Y-95.616
X240.13Y-99.426
X240.13Y-103.236
X240.13Y-107.046
X240.13Y-110.856
X240.13Y-114.666
X240.13Y-118.476
X240.13Y-122.286
T4
G00X69.0Y-55.0
M15
G01X69.0Y-53.5
M16
G05
G00X103.504Y-50.75
M15
G01X103.504Y-52.75
M16
G05
G00X109.204Y-48.75
M15
G01X107.204Y-48.75
M16
G05
G00X109.204Y-54.75
M15
G01X107.204Y-54.75
M16
G05
T6
G00X54.35Y-49.75
M15
G01X55.65Y-49.75
M16
G05
G00X55.0Y-54.9
M15
G01X55.0Y-53.6
M16
G05
G00X68.35Y-49.75
M15
G01X69.65Y-49.75
M16
G05
G00X82.35Y-49.75
M15
G01X83.65Y-49.75
M16
G05
G00X83.0Y-54.9
M15
G01X83.0Y-53.6
M16
G05
M30
